# xmcd CD database file
#
# Track frame offsets:
#	150
#	15506
#	25118
#	40372
#	59448
#	73994
#	87589
#	106412
#	118605
#	135228
#	150511
#
# Disc length: 2216 seconds
#
# Revision: 0
# Processed by: cddbd v1.5.2PL0 Copyright (c) Steve Scherf et al.
# Submitted via: CDex 1.51
#
DISCID=8d08a60b
DTITLE=Ingrid Kirk - The Change In Me
DYEAR=1900
DGENRE=Country
TTITLE0=1963
TTITLE1=I'm A Country Girl
TTITLE2=Fresh From His Soul
TTITLE3=I'll Leave This World Loving You
TTITLE4=I've Been Searching
TTITLE5=The Stranger
TTITLE6=Just Another Woman
TTITLE7=Just Out Of Reach
TTITLE8=Couldn't Say Goodbye
TTITLE9=The Change I'd Make
TTITLE10=I'm Feeling Blue
EXTD=
EXTT0=
EXTT1=
EXTT2=
EXTT3=
EXTT4=
EXTT5=
EXTT6=
EXTT7=
EXTT8=
EXTT9=
EXTT10=
PLAYORDER=
